<svg xmlns="http://www.w3.org/2000/svg" width="1024" height="1024" viewBox="0 0 1024 1024" version="1.1"><path d="M 164 497.122 C 164 970.418, 164.084 994.180, 165.750 992.901 C 166.712 992.162, 171.100 988.362, 175.500 984.457 C 179.900 980.552, 190.925 970.850, 200 962.898 C 242.636 925.536, 275.553 896.651, 286.500 886.994 C 297.312 877.456, 313.778 862.988, 397.508 789.461 C 411.263 777.382, 440.913 751.300, 463.398 731.500 C 485.883 711.700, 506.400 693.700, 508.991 691.500 C 511.583 689.300, 522.624 679.625, 533.527 670 C 544.429 660.375, 555.673 650.475, 558.512 648 C 566.420 641.106, 634.464 581.367, 652.500 565.484 C 661.300 557.735, 683.350 538.385, 701.500 522.484 C 787.395 447.234, 824.943 413.888, 826.941 411.083 C 830.838 405.610, 836.128 392.950, 838.625 383.119 C 848.285 345.093, 835.204 301.450, 805 270.931 C 783.722 249.431, 757.611 236.747, 728.937 233.982 C 722.321 233.344, 646.554 232.989, 522 233.013 C 413.925 233.034, 324.712 233.039, 323.750 233.025 C 322.093 233.001, 322 226.776, 322 116.500 L 322 0 243 0 L 164 0 164 497.122 M 324.250 406.820 L 322 407.139 322 556.102 C 322 719.577, 321.560 707.869, 328.008 716.010 C 331.785 720.779, 339.992 725, 345.486 725 C 354.123 725, 372.283 718.072, 385.493 709.738 C 401.991 699.329, 416.796 686.863, 448.009 657.102 C 458.739 646.871, 475.135 631.750, 484.446 623.500 C 596.346 524.346, 643.140 478.585, 655.219 456.500 C 658.286 450.891, 658.498 449.881, 658.468 441 C 658.430 429.779, 656.511 424.511, 650.142 418.142 C 645.418 413.418, 640.354 410.641, 632.280 408.349 C 627.045 406.863, 612.350 406.698, 476.500 406.604 C 394 406.547, 325.488 406.644, 324.250 406.820" stroke="none" fill="#fa8905" fill-rule="evenodd"/></svg>