<svg xmlns="http://www.w3.org/2000/svg" width="1080" height="1080" viewBox="0 0 1080 1080" version="1.1"><path d="M 173.002 523.554 C 173.007 1030.705, 173.065 1047.067, 174.838 1045.804 C 179.700 1042.339, 183.070 1038.922, 182.513 1038.021 C 182.174 1037.472, 182.511 1037.259, 183.262 1037.547 C 184.014 1037.836, 185.950 1036.818, 187.564 1035.286 C 189.179 1033.754, 192.075 1031.223, 194 1029.663 C 196.201 1027.879, 197.036 1026.642, 196.250 1026.330 C 195.562 1026.057, 195 1025.366, 195 1024.794 C 195 1024.119, 195.476 1024.150, 196.359 1024.883 C 197.397 1025.745, 198.341 1025.519, 200.368 1023.925 C 201.845 1022.763, 202.722 1021.322, 202.349 1020.670 C 201.981 1020.026, 202.052 1019.838, 202.509 1020.252 C 202.965 1020.666, 204.160 1020.260, 205.165 1019.350 C 206.665 1017.993, 206.769 1017.409, 205.746 1016.098 C 204.650 1014.692, 204.705 1014.660, 206.206 1015.836 C 208.078 1017.302, 210.434 1016.511, 209.362 1014.776 C 208.993 1014.179, 209.137 1013.967, 209.683 1014.304 C 211.003 1015.120, 215 1012.256, 215 1010.493 C 215 1009.727, 214.256 1008.683, 213.348 1008.175 C 211.999 1007.420, 212.168 1007.250, 214.268 1007.250 C 216.215 1007.250, 216.700 1007.646, 216.261 1008.875 C 215.860 1009.996, 216.483 1009.769, 218.268 1008.144 C 219.810 1006.739, 220.645 1005.123, 220.333 1004.144 C 219.928 1002.867, 220.027 1002.802, 220.777 1003.851 C 221.570 1004.960, 222.113 1004.884, 223.820 1003.422 C 224.963 1002.444, 225.626 1001.204, 225.294 1000.667 C 224.951 1000.111, 225.210 1000.012, 225.897 1000.436 C 226.616 1000.881, 228.122 1000.081, 229.631 998.453 C 231.299 996.654, 231.593 995.942, 230.496 996.363 C 229.460 996.761, 228.979 996.562, 229.221 995.836 C 229.435 995.194, 230.710 994.609, 232.055 994.536 C 234.309 994.412, 237.295 992.116, 246.896 983.125 C 248.878 981.269, 251.535 979.065, 252.800 978.227 C 254.092 977.372, 254.864 976.089, 254.562 975.300 C 254.265 974.528, 254.393 974.125, 254.844 974.404 C 256.297 975.301, 262.955 970.028, 263.596 967.472 C 263.938 966.112, 264.645 965, 265.167 965 C 265.690 965, 265.788 965.535, 265.384 966.188 C 264.980 966.841, 266.529 965.866, 268.825 964.020 C 271.121 962.175, 273 960.291, 273 959.833 C 273 959.375, 273.430 959, 273.955 959 C 275.296 959, 279.908 954.242, 279.227 953.561 C 278.919 953.252, 279.323 953, 280.125 953 C 280.927 953, 283.169 951.537, 285.107 949.750 C 287.045 947.962, 291.216 944.250, 294.375 941.500 C 297.535 938.750, 303.131 933.691, 306.810 930.257 C 310.490 926.824, 314.320 923.746, 315.322 923.417 C 316.333 923.086, 316.912 922.214, 316.623 921.461 C 316.315 920.657, 316.610 920.297, 317.346 920.579 C 318.030 920.842, 319.488 920.031, 320.586 918.778 C 321.684 917.525, 324.985 914.475, 327.922 912 C 335.250 905.824, 336.187 904.854, 335.493 904.160 C 335.162 903.829, 334.431 904.220, 333.869 905.029 C 332.977 906.314, 332.903 906.310, 333.284 905 C 333.538 904.127, 334.660 903.608, 335.970 903.758 C 337.536 903.937, 338.058 903.595, 337.689 902.632 C 337.359 901.773, 337.791 901.296, 338.829 901.374 C 339.831 901.450, 340.367 900.900, 340.167 900 C 339.983 899.175, 340.167 898.834, 340.575 899.241 C 341.452 900.119, 344.180 898.101, 343.533 897.053 C 343.288 896.657, 343.660 896.333, 344.359 896.333 C 345.870 896.333, 352 891.951, 352 890.871 C 352 890.457, 351.550 889.840, 351 889.500 C 350.450 889.160, 350 888.373, 350 887.750 C 350 887.127, 350.593 887.428, 351.317 888.419 C 352.565 890.125, 352.787 890.087, 355.567 887.680 L 358.500 885.141 356 884.134 C 354.625 883.580, 354.089 883.098, 354.809 883.063 C 355.529 883.029, 355.827 882.438, 355.472 881.750 C 355.117 881.063, 355.722 881.602, 356.817 882.948 L 358.807 885.396 361.296 883 C 362.665 881.682, 363.566 879.906, 363.298 879.052 C 362.945 877.926, 363.058 877.842, 363.711 878.744 C 364.378 879.666, 365.631 879.016, 368.555 876.232 C 370.725 874.167, 374.023 871.299, 375.883 869.859 C 378.146 868.107, 379 866.809, 378.461 865.937 C 377.849 864.947, 377.473 865.099, 376.898 866.566 C 376.202 868.343, 376.135 868.317, 376.070 866.250 C 375.998 863.940, 377.399 863.219, 378.500 865 C 379.511 866.636, 380.224 866.235, 386.500 860.497 C 389.800 857.481, 393.963 853.997, 395.751 852.756 C 397.538 851.515, 398.799 849.960, 398.551 849.301 C 398.293 848.612, 398.679 848.324, 399.461 848.623 C 400.251 848.927, 401.096 848.272, 401.482 847.058 C 401.846 845.910, 402.534 845.212, 403.011 845.507 C 403.487 845.801, 404.242 845.436, 404.689 844.696 C 405.135 843.955, 406.334 843.042, 407.354 842.666 C 408.506 842.242, 408.983 841.399, 408.615 840.440 C 408.289 839.591, 408.430 839.148, 408.927 839.455 C 410.608 840.494, 419.871 831.692, 419.217 829.676 C 419.071 829.222, 419.431 829.149, 420.019 829.512 C 421.420 830.378, 424.165 828.076, 423.334 826.732 C 422.951 826.112, 423.178 825.992, 423.897 826.436 C 424.599 826.870, 426.082 826.204, 427.449 824.841 C 428.739 823.553, 432.384 820.250, 435.549 817.500 C 444.378 809.828, 445 809.141, 445 807.059 C 445 805.991, 445.498 804.810, 446.107 804.434 C 446.862 803.967, 446.986 804.469, 446.497 806.011 C 445.845 808.065, 446.153 807.972, 449.860 804.992 C 452.104 803.189, 453.657 801.215, 453.310 800.606 C 452.963 799.998, 453.048 799.834, 453.498 800.241 C 454.617 801.256, 457.135 799.028, 456.334 797.732 C 455.979 797.157, 456.170 796.987, 456.761 797.352 C 458.179 798.229, 464.192 793.119, 463.348 791.754 C 462.987 791.169, 463.159 790.980, 463.732 791.334 C 464.891 792.050, 472.638 785.348, 472.262 783.955 C 472.131 783.469, 472.582 783.286, 473.264 783.548 C 473.946 783.810, 475.099 783.071, 475.826 781.907 C 476.553 780.743, 476.664 780.089, 476.074 780.454 C 475.483 780.819, 475 780.593, 475 779.952 C 475 779.297, 475.697 779.053, 476.589 779.396 C 477.481 779.738, 479.345 779.086, 480.839 777.909 C 483.502 775.810, 483.670 775.444, 483.885 771.250 C 483.948 770.013, 484.408 769, 484.906 769 C 485.405 769, 485.577 769.900, 485.290 771 C 484.575 773.732, 485.876 773.452, 489.902 770.010 C 491.981 768.232, 493.357 766.105, 493.440 764.539 C 493.516 763.130, 494.010 762.082, 494.539 762.209 C 495.067 762.337, 495.361 763.044, 495.192 763.781 C 494.751 765.703, 498.421 763.062, 504 757.442 C 506.900 754.521, 507.789 753.136, 506.500 753.549 C 504.986 754.033, 504.843 753.945, 505.909 753.187 C 506.684 752.636, 507.809 752.373, 508.409 752.603 C 510.218 753.296, 514.999 748.195, 514.371 746.242 C 513.959 744.959, 514.059 744.846, 514.754 745.813 C 515.495 746.846, 516.423 746.529, 519.098 744.329 C 523.506 740.705, 523.832 740.193, 523.357 737.639 C 523.021 735.833, 523.084 735.782, 523.764 737.312 C 524.501 738.969, 524.908 738.855, 528.527 735.978 C 533.125 732.325, 533.993 731.145, 533.339 729.442 C 532.704 727.787, 534.665 726.649, 535.585 728.138 C 536.068 728.919, 535.873 729.039, 535 728.500 C 534.127 727.960, 533.932 728.081, 534.415 728.863 C 535.206 730.142, 536.264 729.429, 543.723 722.592 C 546.045 720.463, 547.738 718.384, 547.484 717.973 C 547.229 717.562, 547.804 717.288, 548.761 717.363 C 549.717 717.438, 550.387 716.938, 550.250 716.250 C 550.112 715.563, 550.477 715, 551.059 715 C 551.641 715, 551.843 714.555, 551.507 714.011 C 551.149 713.432, 551.579 713.285, 552.549 713.657 C 554.756 714.504, 556.231 712.011, 554.693 710.034 C 553.677 708.727, 553.734 708.682, 555.082 709.733 C 556.350 710.721, 557.045 710.678, 558.582 709.515 C 559.637 708.717, 560.050 708.047, 559.500 708.027 C 558.950 708.006, 560.151 706.980, 562.169 705.745 C 565.703 703.582, 573.834 696.584, 584.103 686.866 C 586.796 684.317, 589.014 682.517, 589.032 682.866 C 589.049 683.215, 589.690 682.673, 590.456 681.663 C 591.222 680.652, 593.345 678.720, 595.174 677.368 C 597.003 676.017, 598.561 674.368, 598.635 673.705 C 598.709 673.042, 598.821 671.986, 598.885 671.357 C 598.948 670.728, 599.762 669.921, 600.694 669.564 C 602.133 669.012, 602.095 669.253, 600.444 671.168 L 598.500 673.422 601.380 671.602 C 606.163 668.582, 609.983 664.781, 609.318 663.705 C 608.973 663.147, 609.174 662.990, 609.765 663.355 C 611.032 664.138, 614.257 661.226, 613.493 659.988 C 613.204 659.521, 613.494 658.813, 614.138 658.415 C 614.869 657.963, 615.041 658.124, 614.595 658.845 C 614.203 659.480, 614.289 660, 614.786 660 C 616.019 660, 619.133 656.467, 618.478 655.811 C 618.189 655.522, 618.750 654.658, 619.726 653.893 C 621.339 652.626, 621.376 652.659, 620.128 654.250 C 618.340 656.529, 620.076 656.529, 622.141 654.250 C 623.012 653.288, 626.552 650.025, 630.007 647 C 639.538 638.654, 639.995 638.151, 639.420 636.652 C 639.126 635.885, 639.650 634.965, 640.584 634.606 C 642.010 634.059, 642.080 634.199, 641.019 635.477 C 640.322 636.316, 640.204 637, 640.755 637 C 642.208 637, 644.106 634.440, 643.272 633.605 C 642.881 633.214, 643.250 633.159, 644.093 633.482 C 645.077 633.860, 646.103 633.177, 646.963 631.569 C 647.699 630.194, 648.618 629.264, 649.005 629.503 C 649.893 630.052, 654.207 625.541, 653.485 624.818 C 653.192 624.525, 653.750 623.658, 654.726 622.893 C 656.339 621.626, 656.376 621.659, 655.128 623.250 C 654.276 624.335, 654.168 625, 654.842 625 C 655.440 625, 656.411 624.100, 657 623 C 657.589 621.900, 658.468 621, 658.954 621 C 659.439 621, 661.710 619.200, 664 617 C 666.290 614.800, 668.625 613, 669.189 613 C 669.753 613, 669.960 612.339, 669.651 611.532 C 669.341 610.725, 669.587 609.755, 670.198 609.378 C 670.871 608.962, 671.028 609.146, 670.595 609.845 C 669.029 612.381, 671.769 610.733, 676.588 606.242 C 679.387 603.634, 684.269 599.250, 687.438 596.500 C 697.955 587.372, 698.249 587.016, 696.796 585.158 C 695.634 583.671, 695.683 583.643, 697.269 584.888 C 699.140 586.357, 699.902 585.954, 705.576 580.500 C 706.720 579.400, 710.530 576.025, 714.043 573 C 730.413 558.903, 731.194 558.123, 730.334 556.731 C 730.040 556.255, 730.632 556.009, 731.650 556.183 C 732.718 556.366, 733.394 555.972, 733.250 555.250 C 733.112 554.562, 733.337 554.053, 733.750 554.118 C 735.657 554.419, 736.834 553.874, 737.387 552.435 C 737.848 551.233, 737.524 551.016, 735.994 551.502 C 734.897 551.850, 734 551.681, 734 551.126 C 734 549.409, 736.016 548.768, 737.513 550.011 C 739.014 551.256, 739.556 550.941, 746.500 544.776 C 748.150 543.312, 750.625 541.197, 752 540.077 C 754.142 538.332, 754.285 537.885, 753 536.955 C 751.786 536.076, 751.902 535.981, 753.609 536.457 C 755.575 537.005, 757.367 535.850, 758.165 533.522 C 758.349 532.984, 759.100 532.456, 759.834 532.348 C 761.586 532.091, 763.979 528.776, 763.257 527.607 C 762.946 527.103, 763.170 526.987, 763.755 527.349 C 765.370 528.347, 768.184 526.923, 767.601 525.403 C 767.319 524.667, 767.587 523.755, 768.198 523.378 C 768.871 522.962, 769.028 523.146, 768.595 523.845 C 767.346 525.867, 769.560 525.086, 771.702 522.750 C 772.837 521.512, 776.180 518.397, 779.132 515.826 C 782.085 513.256, 785.934 509.881, 787.686 508.326 C 789.439 506.772, 792.717 503.925, 794.972 502 C 801.221 496.664, 808.675 489.595, 807.095 490.502 C 806.145 491.048, 805.925 490.930, 806.415 490.138 C 806.813 489.494, 807.554 489.224, 808.062 489.538 C 808.570 489.853, 810.677 488.456, 812.743 486.434 C 814.809 484.412, 817.535 482.071, 818.800 481.231 C 820.065 480.391, 820.880 479.129, 820.610 478.425 C 820.340 477.722, 820.854 476.551, 821.751 475.823 C 822.936 474.863, 823.178 474.843, 822.633 475.750 C 821.149 478.221, 824.045 476.935, 827.052 473.788 C 828.741 472.021, 829.936 469.862, 829.708 468.990 C 829.431 467.931, 829.993 467.370, 831.396 467.304 C 832.553 467.249, 832.938 467.420, 832.250 467.685 C 831.563 467.950, 831 468.649, 831 469.238 C 831 469.828, 831.867 469.526, 832.926 468.567 C 833.985 467.609, 834.683 465.952, 834.478 464.886 C 834.272 463.818, 834.538 463.214, 835.069 463.542 C 835.599 463.870, 835.774 464.557, 835.457 465.069 C 834.621 466.422, 835.928 466.210, 837.423 464.750 C 838.127 464.063, 841.087 461.475, 844 459 C 850.955 453.091, 852 452.037, 852 450.929 C 852 450.418, 852.563 450, 853.252 450 C 854.838 450, 864.500 441.063, 864.500 439.597 C 864.500 438.995, 865.302 438.502, 866.283 438.501 C 868.543 438.500, 869.870 436.400, 869.357 433.639 C 869.001 431.726, 869.047 431.701, 869.794 433.397 C 870.534 435.076, 870.888 434.855, 872.890 431.461 C 874.763 428.287, 874.964 427.188, 874.060 425.064 C 873.045 422.683, 873.074 422.636, 874.458 424.406 C 875.904 426.255, 875.976 426.240, 876.857 423.906 C 877.357 422.583, 877.566 421.163, 877.324 420.750 C 877.081 420.338, 877.319 420, 877.854 420 C 879.022 420, 884.220 406.747, 884.488 403.088 C 884.592 401.665, 884.962 399.825, 885.311 399 C 887.778 393.163, 888.645 375.080, 886.988 364 C 886.453 360.425, 885.734 355.250, 885.390 352.500 C 885.046 349.750, 884.487 347.050, 884.148 346.500 C 883.808 345.950, 883.501 345.275, 883.464 345 C 882.652 338.880, 873.656 317.482, 869.590 312 C 868.978 311.175, 867.608 308.925, 866.545 307 C 865.482 305.075, 864.137 302.987, 863.556 302.361 C 862.975 301.734, 861.600 299.935, 860.500 298.362 C 859.400 296.790, 853.767 290.742, 847.983 284.923 C 837.314 274.191, 819.858 261.457, 817.210 262.473 C 816.487 262.750, 816.142 262.579, 816.442 262.093 C 817.145 260.957, 814.154 259.787, 812.755 260.651 C 812.170 261.013, 811.967 260.862, 812.305 260.316 C 812.803 259.509, 805.733 254.558, 804.777 255.044 C 804.625 255.121, 803.150 254.637, 801.500 253.968 C 799.850 253.299, 797.600 252.385, 796.500 251.938 C 793.906 250.884, 790.352 249.889, 787.650 249.461 C 786.468 249.273, 783.700 248.548, 781.500 247.848 C 778.326 246.839, 732.315 246.513, 558.750 246.268 L 340 245.961 340.003 242.230 C 340.004 240.179, 339.977 184.838, 339.941 119.250 L 339.877 -0 256.437 -0 L 172.996 0 173.002 523.554 M 339.715 585.232 C 339.833 671.729, 340.178 743.891, 340.480 745.590 C 340.930 748.116, 340.617 748.876, 338.765 749.749 L 336.500 750.817 338.750 750.696 C 339.988 750.629, 341 750.220, 341 749.787 C 341 749.354, 341.525 749, 342.167 749 C 342.808 749, 343.055 749.279, 342.714 749.619 C 342.374 749.960, 342.753 750.896, 343.557 751.700 C 344.361 752.504, 344.720 753.644, 344.355 754.235 C 343.982 754.839, 344.157 755.021, 344.754 754.652 C 345.339 754.290, 346.871 755.239, 348.159 756.760 C 352.241 761.583, 357.880 764.244, 364 764.237 C 370.186 764.230, 375.020 763.380, 379.202 761.562 C 380.138 761.156, 381.445 761.157, 382.107 761.566 C 382.869 762.037, 383.048 761.886, 382.595 761.155 C 382.181 760.484, 382.492 760, 383.339 760 C 384.141 760, 387.363 758.650, 390.500 757 C 396.217 753.993, 398.565 753.276, 397.603 754.833 C 397.320 755.292, 397.736 755.667, 398.528 755.667 C 399.641 755.667, 399.707 755.352, 398.820 754.283 C 397.911 753.188, 398.124 752.780, 399.836 752.333 C 401.026 752.021, 402 751.294, 402 750.717 C 402 750.139, 402.279 749.945, 402.619 750.286 C 402.960 750.626, 403.892 750.251, 404.690 749.452 C 406.325 747.817, 408.447 747.468, 407.507 748.989 C 407.157 749.555, 407.557 749.724, 408.442 749.384 C 409.293 749.057, 409.752 748.407, 409.462 747.939 C 409.173 747.471, 410.188 746.286, 411.718 745.307 C 413.248 744.327, 415.095 742.958, 415.821 742.263 C 416.548 741.568, 417.453 741, 417.832 741 C 418.210 741, 419.641 739.975, 421.010 738.722 C 426.462 733.733, 429.613 732.019, 430.991 733.293 C 432.031 734.256, 432.175 734.160, 431.704 732.815 C 431.298 731.659, 432.428 729.979, 435.306 727.457 C 437.613 725.436, 440.697 722.707, 442.160 721.391 C 445.066 718.779, 446.951 718.150, 445.065 720.421 C 444.097 721.589, 444.257 721.746, 445.964 721.299 C 447.595 720.873, 447.797 720.461, 446.903 719.384 C 446.017 718.315, 446.289 717.574, 448.132 716.035 C 449.435 714.948, 451.086 714.266, 451.802 714.518 C 452.518 714.771, 452.859 714.580, 452.559 714.096 C 452.259 713.611, 453.670 711.606, 455.694 709.640 C 458.748 706.673, 459.640 706.273, 460.937 707.283 C 462.284 708.332, 462.326 708.277, 461.238 706.883 C 460.215 705.573, 460.233 705.052, 461.330 704.141 C 462.075 703.523, 462.980 703.238, 463.342 703.509 C 463.704 703.779, 463.762 703.687, 463.470 703.304 C 462.678 702.262, 477.194 688.002, 478.330 688.704 C 478.869 689.037, 479.038 688.870, 478.706 688.333 C 478.374 687.796, 478.985 686.601, 480.063 685.678 C 482.409 683.669, 482.725 683.627, 483.283 685.250 C 483.520 685.938, 483.579 685.651, 483.415 684.614 C 483.119 682.745, 485.119 680.505, 495.574 671 C 503.708 663.605, 509.643 658.987, 510.342 659.509 C 510.704 659.779, 510.771 659.696, 510.491 659.324 C 509.870 658.500, 513.960 654, 515.329 654 C 515.869 654, 515.476 654.922, 514.457 656.048 C 512.475 658.238, 511.526 661.411, 513.154 660.405 C 513.693 660.072, 513.872 659.538, 513.553 659.219 C 513.233 658.900, 514.147 657.412, 515.584 655.913 C 517.020 654.414, 518.065 652.807, 517.907 652.343 C 517.748 651.880, 518.954 650.600, 520.586 649.500 C 522.218 648.400, 523.753 647.050, 523.997 646.500 C 524.241 645.950, 525.804 644.384, 527.470 643.020 C 529.137 641.655, 531.430 639.500, 532.566 638.230 C 533.967 636.664, 535.254 636.125, 536.566 636.555 C 537.916 636.997, 538.108 636.907, 537.203 636.256 C 536.162 635.508, 536.220 635.063, 537.495 634.004 C 538.699 633.005, 539.366 632.966, 540.242 633.842 C 541.665 635.265, 543 635.341, 543 634 C 543 633.450, 542.663 633.053, 542.250 633.118 C 540.279 633.430, 539.868 632.864, 541.039 631.453 C 541.941 630.366, 542.532 630.242, 543.023 631.037 C 543.494 631.800, 543.926 631.636, 544.349 630.532 C 544.716 629.576, 544.566 629.150, 543.989 629.507 C 543.445 629.843, 543 629.664, 543 629.109 C 543 628.554, 543.701 627.707, 544.557 627.228 C 546.406 626.193, 558.111 615.863, 562.660 611.250 C 564.423 609.462, 566.123 608, 566.439 608 C 566.754 608, 569.034 605.948, 571.506 603.441 C 574.139 600.770, 576.478 599.177, 577.155 599.596 C 577.844 600.021, 578.039 599.871, 577.638 599.224 C 577.269 598.627, 577.425 597.856, 577.984 597.510 C 578.543 597.165, 579 597.488, 579 598.228 C 579 598.969, 580.013 599.645, 581.250 599.732 C 583.228 599.871, 583.288 599.770, 581.750 598.895 C 580.788 598.348, 580 597.323, 580 596.618 C 580 595.202, 588.053 588.353, 589.250 588.751 C 589.663 588.888, 590 588.523, 590 587.941 C 590 587.359, 590.445 587.157, 590.989 587.493 C 591.537 587.832, 591.733 587.468, 591.428 586.674 C 590.818 585.084, 597.791 578.753, 599.196 579.621 C 599.665 579.911, 599.926 579.553, 599.775 578.824 C 599.624 578.096, 600.256 577.494, 601.179 577.487 C 603.214 577.472, 604.313 576.473, 604.624 574.357 C 604.752 573.485, 607.476 570.466, 610.678 567.648 C 613.880 564.830, 619 560.044, 622.055 557.012 C 644.067 535.168, 646.794 532.819, 648.860 533.925 C 651.581 535.381, 652.003 535.290, 651.985 533.250 C 651.972 531.754, 651.828 531.718, 651 533 C 650.296 534.090, 650.026 534.142, 650.015 533.191 C 650.007 532.471, 649.555 532.157, 649.011 532.493 C 648.456 532.836, 648.271 532.458, 648.589 531.629 C 649.238 529.938, 651.771 528.740, 653.040 529.525 C 653.513 529.817, 654.397 529.031, 655.005 527.778 C 656.021 525.684, 655.993 525.646, 654.651 527.310 C 653.849 528.305, 652.945 528.720, 652.643 528.232 C 651.913 527.050, 663.401 515.734, 664.359 516.692 C 664.770 517.103, 664.822 516.700, 664.475 515.796 C 663.736 513.869, 667.351 511.493, 669.271 512.646 C 670.067 513.124, 670.017 512.788, 669.128 511.692 C 668.373 510.761, 668.148 509.999, 668.628 509.997 C 669.107 509.996, 670.400 508.651, 671.500 507.009 C 672.914 504.898, 674.086 504.164, 675.500 504.503 C 676.600 504.766, 676.937 504.723, 676.248 504.407 C 675.364 504.001, 675.927 502.537, 678.168 499.416 C 681.494 494.785, 682.479 494.186, 683.377 496.250 C 683.676 496.938, 683.666 496.267, 683.354 494.759 C 682.959 492.847, 683.245 491.843, 684.302 491.437 C 685.135 491.118, 686.363 489.539, 687.030 487.928 C 687.697 486.318, 688.638 485, 689.121 485 C 689.605 485, 690 484.507, 690 483.904 C 690 483.302, 690.931 481.502, 692.068 479.904 C 693.206 478.307, 693.869 477, 693.542 477 C 693.216 477, 693.577 475.762, 694.344 474.250 C 697.813 467.415, 694.533 450.971, 688.116 443.021 C 686.127 440.558, 684.607 438.212, 684.738 437.807 C 684.869 437.403, 684.306 437.329, 683.488 437.643 C 682.670 437.957, 682 437.796, 682 437.285 C 682 435.627, 668.834 430.511, 661 429.124 C 659.625 428.881, 586.725 428.520, 499 428.323 L 339.500 427.964 339.715 585.232 M 778.234 512.869 C 778.070 515.248, 778.179 515.334, 779.375 513.766 C 780.103 512.812, 781.052 512.362, 781.486 512.766 C 781.919 513.169, 782.075 512.864, 781.833 512.087 C 781.026 509.504, 778.428 510.068, 778.234 512.869 M 389.118 851.750 C 389.549 854.480, 388.851 856.157, 387.500 855.638 C 386.586 855.288, 386 855.637, 386 856.531 C 386 858.546, 386.973 858.374, 389.613 855.894 C 390.847 854.735, 391.615 853.160, 391.321 852.394 C 390.770 850.957, 388.907 850.413, 389.118 851.750" stroke="none" fill="#fffcfc" fill-rule="evenodd"/></svg>